HIERARCHY
ROOT Hips
{
	OFFSET -3.958830 18.904000 13.208200
	CHANNELS 6 Xposition Yposition Zposition Zrotation Yrotation Xrotation 
	JOINT LHipJoint
	{
		OFFSET 0.000000 0.000000 0.000000
		CHANNELS 3 Zrotation Yrotation Xrotation
		JOINT LeftUpLeg
		{
			OFFSET 1.800000 -1.400000 0.085000
			CHANNELS 3 Zrotation Yrotation Xrotation
			JOINT LeftLeg
			{
				OFFSET 2.215000 -6.000000 0.000000
				CHANNELS 3 Zrotation Yrotation Xrotation
				JOINT LeftFoot
				{
					OFFSET 2.500000 -6.900000 0.000000
					CHANNELS 3 Zrotation Yrotation Xrotation
					JOINT LeftToeBase
					{
						OFFSET 0.200000 -0.500000 1.950000
						CHANNELS 3 Zrotation Yrotation Xrotation
						End Site
						{
							OFFSET 0.000000 0.000000 0.000000
						}
					}
				}
			}
		}
	}
	JOINT RHipJoint
	{
		OFFSET 0.000000 0.000000 0.000000
		CHANNELS 3 Zrotation Yrotation Xrotation
		JOINT RightUpLeg
		{
			OFFSET -1.800000 -1.400000 0.085000
			CHANNELS 3 Zrotation Yrotation Xrotation
			JOINT RightLeg
			{
				OFFSET -2.215000 -6.000000 0.000000
				CHANNELS 3 Zrotation Yrotation Xrotation
				JOINT RightFoot
				{
					OFFSET -2.500000 -6.900000 0.000000
					CHANNELS 3 Zrotation Yrotation Xrotation
					JOINT RightToeBase
					{
						OFFSET -0.200000 -0.500000 1.950000
						CHANNELS 3 Zrotation Yrotation Xrotation
						End Site
						{
							OFFSET 0.000000 0.000000 0.000000
						}
					}
				}
			}
		}
	}
	JOINT LowerBack
	{
		OFFSET 0.000000 0.000000 0.000000
		CHANNELS 3 Zrotation Yrotation Xrotation
		JOINT Spine
		{
			OFFSET -0.087000 1.940000 -0.288900
			CHANNELS 3 Zrotation Yrotation Xrotation
			JOINT Spine1
			{
				OFFSET 0.000000 1.950000 0.060000
				CHANNELS 3 Zrotation Yrotation Xrotation
				JOINT Neck
				{
					OFFSET 0.000000 0.000000 0.000000
					CHANNELS 3 Zrotation Yrotation Xrotation
					JOINT Neck1
					{
						OFFSET 0.000000 1.600000 0.340000
						CHANNELS 3 Zrotation Yrotation Xrotation
						JOINT Head
						{
							OFFSET 0.000000 1.667000 -0.240000
							CHANNELS 3 Zrotation Yrotation Xrotation
							End Site
							{
								OFFSET 0.000000 0.000000 0.000000
							}
						}
					}
				}
				JOINT LeftShoulder
				{
					OFFSET 0.000000 0.000000 0.000000
					CHANNELS 3 Zrotation Yrotation Xrotation
					JOINT LeftArm
					{
						OFFSET 2.700000 1.550000 -0.730000
						CHANNELS 3 Zrotation Yrotation Xrotation
						JOINT LeftForeArm
						{
							OFFSET 5.450000 0.000000 0.000000
							CHANNELS 3 Zrotation Yrotation Xrotation
							JOINT LeftHand
							{
								OFFSET 3.450000 0.000000 0.000000
								CHANNELS 3 Zrotation Yrotation Xrotation
								JOINT LeftHandIndex1
								{
									OFFSET 0.750000 0.000000 0.000000
									CHANNELS 3 Zrotation Yrotation Xrotation
									End Site
									{
										OFFSET 0.000000 0.000000 0.000000
									}
								}
							}
						}
					}
				}
				JOINT RightShoulder
				{
					OFFSET 0.000000 0.000000 0.000000
					CHANNELS 3 Zrotation Yrotation Xrotation
					JOINT RightArm
					{
						OFFSET -2.700000 1.550000 -0.730000
						CHANNELS 3 Zrotation Yrotation Xrotation
						JOINT RightForeArm
						{
							OFFSET -5.450000 0.000000 0.000000
							CHANNELS 3 Zrotation Yrotation Xrotation
							JOINT RightHand
							{
								OFFSET -3.450000 0.000000 0.000000
								CHANNELS 3 Zrotation Yrotation Xrotation
								JOINT RightHandIndex1
								{
									OFFSET -0.750000 0.000000 0.000000
									CHANNELS 3 Zrotation Yrotation Xrotation
									End Site
									{
										OFFSET 0.000000 0.000000 0.000000
									}
								}
							}
						}
					}
				}
			}
		}
	}
}
MOTION
Frames: 9
Frame Time: 0.016667
-2.977810 17.080390 -2.879950 -26.679998 -68.436859 8.764510 -15.156539 14.309250 3.569336 0.728216 -2.571089 -24.525011 0.601871 4.414910 20.240803 -0.780870 3.037442 3.224557 0.962340 0.631620 1.151470 17.974704 -11.056633 2.909215 0.085738 6.889968 -4.024989 -9.631072 -1.973721 55.669647 -1.632834 -7.856533 1.636708 0.289140 -0.584780 0.247840 -3.032055 -3.224941 -7.617559 5.394211 -0.184333 35.742205 -10.803827 4.131472 12.159202 8.662139 -4.596521 -14.651761 -13.176005 20.426220 51.900392 -16.788790 18.685320 -27.037190 -26.042812 -22.994446 7.820091 -31.078483 -10.665927 -4.876668 1.391578 -22.682494 -1.943039 -3.136757 3.047192 0.898580 -0.299630 0.556120 0.024270 8.292958 30.108812 5.497897 13.326798 21.764550 -17.829534 -58.793694 42.574560 -26.970463 1.791956 -1.146507 0.009020 -0.012140 -0.380280 -0.514190 
-2.801800 17.148820 -2.943460 -26.220865 -68.931611 9.516445 -15.162829 14.200458 3.640318 0.107196 -3.148161 -25.353651 1.054266 4.504946 22.643141 -0.705650 3.159335 3.148631 0.997680 0.686420 1.157390 17.994579 -11.064119 2.908429 1.127637 5.937610 -7.711798 -11.777384 -0.745490 52.803421 -1.534434 -7.244365 1.809348 0.284030 -0.658850 0.237050 -3.173518 -3.152448 -7.572576 5.205620 -0.228881 36.965709 -8.591921 3.692246 11.550256 6.258169 -5.101676 -14.231367 -15.305021 20.676522 51.409189 -17.073060 18.296880 -30.399540 -22.057716 -22.770975 7.022077 -29.414246 -13.775444 -5.999484 1.582898 -30.230909 -2.340489 -3.038022 3.077609 0.923040 -0.378270 0.606810 0.034400 9.182807 29.108115 6.587928 22.629307 21.101956 -18.074353 -57.272088 50.359606 -29.999548 1.692988 -0.877063 0.053090 -0.041470 -0.416550 -0.497990 
-2.643940 17.200170 -3.012090 -24.229246 -69.801720 7.698220 -15.238734 14.277006 3.775713 1.037732 -3.818586 -25.278756 -1.515038 6.165480 28.226627 -0.583455 4.266799 2.741517 0.913800 0.566430 1.122690 17.933198 -10.909803 2.809697 1.337832 5.118585 -9.608604 -12.943329 -0.284200 49.873763 -1.409322 -6.669759 1.987299 0.214760 -0.665340 0.201780 -2.943153 -3.630873 -7.616306 2.777059 0.874996 39.654937 -5.095929 4.050206 10.190371 4.378481 -5.087451 -14.331672 -16.518502 20.055039 52.297400 -17.860360 17.597760 -33.809620 -20.844229 -23.380259 6.306517 -24.626253 -15.146062 -7.732003 1.660722 -38.219001 -2.659205 -2.980737 3.011006 1.015360 -0.432510 0.608080 -0.006510 11.897156 29.648956 8.092524 28.741300 19.331144 -18.912216 -51.169766 53.260671 -27.807650 1.694124 -0.751849 -0.009020 0.002300 -0.354560 -0.530170 
-2.457800 17.197730 -3.059110 -20.548270 -69.729469 4.987182 -15.336998 14.032118 4.251376 1.296817 -6.175404 -27.068522 -4.490563 8.647172 37.007921 -0.224729 6.098331 2.098340 0.855300 0.508840 1.069780 17.905058 -10.704617 2.520021 -0.000786 4.140992 -12.689378 -12.679525 -0.862393 47.586011 -1.266195 -6.191685 2.158213 0.161380 -0.622040 0.192260 -2.774423 -3.946700 -7.791802 0.852774 1.579413 41.527954 -2.261606 3.960672 8.877527 2.751022 -4.737744 -14.547623 -16.721983 19.403227 52.215119 -16.631720 17.960150 -33.794200 -19.077337 -24.288220 5.315563 -18.960187 -17.431652 -8.037031 2.329276 -40.778410 -2.412805 -2.998793 2.981911 1.017390 -0.426510 0.596020 0.003020 13.609920 29.604109 9.730429 34.437082 15.540719 -19.545448 -39.982336 54.882937 -22.483143 1.735207 -0.848053 -0.021400 0.021110 -0.335500 -0.513500 
-2.310290 17.175990 -3.116570 -16.487526 -69.097555 1.390724 -15.437250 13.698495 4.841951 2.833881 -9.273885 -28.159331 -9.315951 12.728023 46.373384 0.347328 8.567482 1.291302 0.827080 0.505000 1.050840 17.911239 -10.429748 2.086668 -1.604683 2.681173 -14.094595 -12.099086 -1.692416 45.147733 -1.150211 -5.744541 2.332761 0.141910 -0.615270 0.153230 -2.465568 -4.348461 -8.035896 -1.644118 2.404397 43.112860 0.789115 3.752478 8.715494 1.401769 -4.432667 -14.715387 -16.818870 18.299272 51.790228 -17.268930 18.110160 -34.814080 -17.329509 -25.416767 4.325201 -13.519483 -19.044324 -9.775938 8.673357 -44.217019 -4.562383 -2.979071 2.923689 1.012450 -0.434970 0.603370 0.024630 14.742747 29.914955 11.384711 40.138336 12.233247 -19.811658 -32.483191 52.666160 -18.258483 1.817936 -0.981623 -0.035120 0.051820 -0.358000 -0.499730 
-2.189400 17.111160 -3.167780 -11.946911 -68.499033 -2.888970 -15.494799 13.308849 5.381371 4.420148 -12.409798 -28.836315 -14.203932 18.044330 55.494067 0.986446 11.234971 0.460307 0.872130 0.559100 1.075680 17.979600 -10.140350 1.647990 -3.602180 1.721880 -15.046880 -11.944714 -2.276237 45.403074 -1.155125 -5.775946 2.294617 0.178900 -0.647300 0.155630 -2.150076 -4.701498 -8.277559 -3.800694 3.435642 44.318839 3.878313 3.641773 9.227853 -0.313321 -4.873486 -14.594900 -18.710456 17.933174 50.668790 -16.989040 17.577130 -35.964480 -15.481701 -25.806662 3.191218 -7.948112 -19.656992 -11.422358 15.225493 -47.065162 -7.228131 -2.973988 2.913696 1.031990 -0.456640 0.623890 0.029540 16.368541 30.087614 12.433792 43.174362 9.929293 -19.050263 -28.394562 47.233828 -14.599073 1.885099 -1.134744 -0.028890 0.043800 -0.376930 -0.508730 
-2.050920 16.983950 -3.228410 -9.541236 -68.196521 -3.676804 -15.606502 12.642736 5.991684 7.867204 -15.286414 -31.758680 -21.086336 25.068264 62.040842 1.622042 13.844973 -0.256357 0.889600 0.583760 1.059250 18.014370 -9.780102 1.404913 -4.153866 1.460550 -17.884128 -12.586753 -2.544216 48.024744 -1.220722 -6.185164 2.137120 0.222650 -0.592040 0.173590 -2.175810 -4.648939 -8.576033 -3.909423 3.213374 44.021956 5.604530 3.029367 9.481070 -2.374323 -5.729997 -14.119215 -20.575010 17.774288 47.090439 -15.248310 17.002150 -35.763270 -13.119662 -25.513209 2.095511 -3.456539 -21.018486 -12.158397 24.758701 -45.141848 -10.568631 -3.102162 2.832128 1.020790 -0.418900 0.596330 0.039170 18.050222 29.399675 12.644281 45.112305 9.071825 -17.670301 -25.005706 43.050568 -11.841061 1.897154 -1.221095 -0.045410 0.077430 -0.350630 -0.504380 
-1.927250 16.826500 -3.284750 -7.348723 -68.412224 -4.483199 -15.707364 12.155380 6.461255 11.597563 -17.324446 -33.612156 -27.811165 32.981072 66.972721 2.281720 15.996998 -0.752837 0.938650 0.653070 1.089170 18.034388 -9.364947 1.215171 -4.910904 1.257492 -20.844698 -12.761807 -3.061398 51.203589 -1.315103 -6.683328 1.958630 0.268210 -0.592710 0.171670 -1.965485 -4.876070 -8.866438 -5.347800 3.900092 42.956321 8.240023 2.808375 9.537789 -4.145735 -5.719067 -13.596082 -20.763681 16.988939 46.121393 -14.523200 17.113200 -34.914250 -11.523098 -25.044079 1.025188 1.143088 -22.962362 -12.476681 31.500095 -39.807991 -11.703347 -3.202647 2.823242 0.986120 -0.406460 0.598440 0.066220 19.986814 28.413703 12.847983 46.786325 7.642777 -16.707359 -21.027507 40.081984 -9.560649 1.945730 -1.324604 -0.031360 0.071340 -0.397770 -0.493270 
-1.813540 16.694750 -3.346180 -3.478605 -67.237070 -6.914538 -15.748106 11.788354 6.873315 15.120398 -19.813572 -34.878428 -34.279750 41.339068 71.098158 2.854595 17.711927 -1.063771 0.887840 0.609690 1.046070 18.095762 -8.966512 0.970447 -6.583308 0.318857 -24.325502 -12.541378 -3.930445 52.278784 -1.290005 -6.879187 1.895885 0.248770 -0.534290 0.176940 -1.552987 -5.357064 -9.154515 -8.447472 4.318212 42.095445 11.014469 1.854134 8.256666 -5.402034 -5.199316 -12.834659 -19.915657 16.485673 46.387544 -15.281630 18.079350 -33.268160 -12.420216 -24.823133 -0.320410 7.094764 -24.870064 -13.240291 35.538544 -33.396609 -11.158706 -3.394297 2.803008 0.945860 -0.349020 0.562210 0.076730 23.634524 27.016439 12.993361 47.823103 5.827228 -16.419504 -17.273201 38.433304 -7.857041 1.966725 -1.372092 -0.050300 0.075830 -0.381470 -0.481870 
